<!--?xml version="1.0" standalone="no"?-->
              <svg id="sw-js-blob-svg" viewBox="0 0 100 100" xmlns="http://www.w3.org/2000/svg" version="1.1">
                    <defs> 
                        <linearGradient id="sw-gradient" x1="0" x2="1" y1="1" y2="0">
                            <stop id="stop1" stop-color="rgba(0, 192, 255, 1)" offset="0%"></stop>
                            <stop id="stop2" stop-color="rgba(0, 192, 255, 1)" offset="100%"></stop>
                        </linearGradient>
                    </defs>
                <path fill="url(#sw-gradient)" d="M20.9,-34.5C27.9,-32,35.1,-28.2,39,-22.3C42.8,-16.3,43.3,-8.1,43,-0.2C42.6,7.8,41.5,15.5,37.7,21.6C33.9,27.7,27.5,32.2,20.8,36.5C14.1,40.9,7,45.2,-0.2,45.5C-7.4,45.9,-14.8,42.1,-21.7,37.8C-28.5,33.6,-34.9,28.7,-39.2,22.3C-43.5,15.8,-45.8,7.9,-44.6,0.7C-43.3,-6.5,-38.5,-13,-34.2,-19.5C-30,-26,-26.3,-32.7,-20.7,-35.9C-15.1,-39.2,-7.6,-39.1,-0.3,-38.6C6.9,-38,13.8,-36.9,20.9,-34.5Z" width="100%" height="100%" transform="translate(50 50)" stroke-width="0" style="transition: 0.3s;" stroke="url(#sw-gradient)"></path>
              </svg>